%TF.GenerationSoftware,KiCad,Pcbnew,(6.0.0-0)*%
%TF.CreationDate,2022-02-05T19:10:17-08:00*%
%TF.ProjectId,w2rf004rm-breakout,77327266-3030-4347-926d-2d627265616b,v1*%
%TF.SameCoordinates,Original*%
%TF.FileFunction,Soldermask,Top*%
%TF.FilePolarity,Negative*%
%FSLAX46Y46*%
G04 Gerber Fmt 4.6, Leading zero omitted, Abs format (unit mm)*
G04 Created by KiCad (PCBNEW (6.0.0-0)) date 2022-02-05 19:10:17*
%MOMM*%
%LPD*%
G01*
G04 APERTURE LIST*
G04 Aperture macros list*
%AMRoundRect*
0 Rectangle with rounded corners*
0 $1 Rounding radius*
0 $2 $3 $4 $5 $6 $7 $8 $9 X,Y pos of 4 corners*
0 Add a 4 corners polygon primitive as box body*
4,1,4,$2,$3,$4,$5,$6,$7,$8,$9,$2,$3,0*
0 Add four circle primitives for the rounded corners*
1,1,$1+$1,$2,$3*
1,1,$1+$1,$4,$5*
1,1,$1+$1,$6,$7*
1,1,$1+$1,$8,$9*
0 Add four rect primitives between the rounded corners*
20,1,$1+$1,$2,$3,$4,$5,0*
20,1,$1+$1,$4,$5,$6,$7,0*
20,1,$1+$1,$6,$7,$8,$9,0*
20,1,$1+$1,$8,$9,$2,$3,0*%
G04 Aperture macros list end*
%ADD10R,1.750000X0.450000*%
%ADD11RoundRect,0.250000X-0.400000X-0.625000X0.400000X-0.625000X0.400000X0.625000X-0.400000X0.625000X0*%
%ADD12RoundRect,0.250000X0.400000X0.625000X-0.400000X0.625000X-0.400000X-0.625000X0.400000X-0.625000X0*%
%ADD13O,1.700000X1.700000*%
%ADD14R,1.700000X1.700000*%
%ADD15RoundRect,0.150000X0.150000X0.625000X-0.150000X0.625000X-0.150000X-0.625000X0.150000X-0.625000X0*%
%ADD16RoundRect,0.250000X0.350000X0.650000X-0.350000X0.650000X-0.350000X-0.650000X0.350000X-0.650000X0*%
%ADD17RoundRect,0.250000X0.412500X0.650000X-0.412500X0.650000X-0.412500X-0.650000X0.412500X-0.650000X0*%
%ADD18RoundRect,0.250000X-0.412500X-0.650000X0.412500X-0.650000X0.412500X0.650000X-0.412500X0.650000X0*%
G04 APERTURE END LIST*
D10*
%TO.C,U1*%
X150780000Y-84675000D03*
X150780000Y-85325000D03*
X150780000Y-85975000D03*
X150780000Y-86625000D03*
X150780000Y-87275000D03*
X150780000Y-87925000D03*
X150780000Y-88575000D03*
X150780000Y-89225000D03*
X150780000Y-89875000D03*
X150780000Y-90525000D03*
X150780000Y-91175000D03*
X150780000Y-91825000D03*
X150780000Y-92475000D03*
X150780000Y-93125000D03*
X143580000Y-93125000D03*
X143580000Y-92475000D03*
X143580000Y-91825000D03*
X143580000Y-91175000D03*
X143580000Y-90525000D03*
X143580000Y-89875000D03*
X143580000Y-89225000D03*
X143580000Y-88575000D03*
X143580000Y-87925000D03*
X143580000Y-87275000D03*
X143580000Y-86625000D03*
X143580000Y-85975000D03*
X143580000Y-85325000D03*
X143580000Y-84675000D03*
%TD*%
D11*
%TO.C,R2*%
X146250000Y-101812000D03*
X143150000Y-101812000D03*
%TD*%
D12*
%TO.C,R1*%
X151550000Y-101812000D03*
X148450000Y-101812000D03*
%TD*%
D13*
%TO.C,J3*%
X139700000Y-105740000D03*
X139700000Y-103200000D03*
X139700000Y-100660000D03*
X139700000Y-98120000D03*
X139700000Y-95580000D03*
X139700000Y-93040000D03*
X139700000Y-90500000D03*
X139700000Y-87960000D03*
D14*
X139700000Y-85420000D03*
%TD*%
D13*
%TO.C,J2*%
X154940000Y-85400000D03*
X154940000Y-87940000D03*
X154940000Y-90480000D03*
X154940000Y-93020000D03*
X154940000Y-95560000D03*
X154940000Y-98100000D03*
X154940000Y-100640000D03*
X154940000Y-103180000D03*
D14*
X154940000Y-105720000D03*
%TD*%
D15*
%TO.C,J1*%
X148820000Y-105355000D03*
X147820000Y-105355000D03*
X146820000Y-105355000D03*
X145820000Y-105355000D03*
D16*
X150120000Y-107880000D03*
X144520000Y-107880000D03*
%TD*%
D17*
%TO.C,C3*%
X148437500Y-99060000D03*
X151562500Y-99060000D03*
%TD*%
D18*
%TO.C,C2*%
X143137500Y-99060000D03*
X146262500Y-99060000D03*
%TD*%
%TO.C,C1*%
X143077500Y-96520000D03*
X146202500Y-96520000D03*
%TD*%
M02*
